<svg xmlns="http://www.w3.org/2000/svg" viewBox="0 0 240 240">
  <path d="M40 5.820313L7 26.445313L7 35.804688L8.53125 34.847656L9 34.550781L9 71L71 71L71 34.554688L73 35.804688L73 26.445313 Z M 40 8.179688L71 27.554688L71 32.199219L40 12.820313L9 32.199219L9 27.554688 Z M 40 15.179688L69 33.304688L69 62C68.449219 62 68 62.449219 68 63C68 63.550781 68.449219 64 69 64L69 69L49 69L49 64C49.550781 64 50 63.550781 50 63C50 62.449219 49.550781 62 49 62L49 44L31 44L31 62C30.449219 62 30 62.449219 30 63C30 63.550781 30.449219 64 31 64L31 69L11 69L11 64C11.550781 64 12 63.550781 12 63C12 62.449219 11.550781 62 11 62L11 33.300781 Z M 31 25L31 37L49 37L49 25 Z M 33 27L39 27L39 35L33 35 Z M 41 27L47 27L47 35L41 35 Z M 33 46L47 46L47 69L33 69 Z M 43.5 57C42.671875 57 42 57.671875 42 58.5C42 59.328125 42.671875 60 43.5 60C44.328125 60 45 59.328125 45 58.5C45 57.671875 44.328125 57 43.5 57 Z M 15 62C14.449219 62 14 62.449219 14 63C14 63.550781 14.449219 64 15 64C15.550781 64 16 63.550781 16 63C16 62.449219 15.550781 62 15 62 Z M 19 62C18.449219 62 18 62.449219 18 63C18 63.550781 18.449219 64 19 64C19.550781 64 20 63.550781 20 63C20 62.449219 19.550781 62 19 62 Z M 23 62C22.449219 62 22 62.449219 22 63C22 63.550781 22.449219 64 23 64C23.550781 64 24 63.550781 24 63C24 62.449219 23.550781 62 23 62 Z M 27 62C26.449219 62 26 62.449219 26 63C26 63.550781 26.449219 64 27 64C27.550781 64 28 63.550781 28 63C28 62.449219 27.550781 62 27 62 Z M 53 62C52.449219 62 52 62.449219 52 63C52 63.550781 52.449219 64 53 64C53.550781 64 54 63.550781 54 63C54 62.449219 53.550781 62 53 62 Z M 57 62C56.449219 62 56 62.449219 56 63C56 63.550781 56.449219 64 57 64C57.550781 64 58 63.550781 58 63C58 62.449219 57.550781 62 57 62 Z M 61 62C60.449219 62 60 62.449219 60 63C60 63.550781 60.449219 64 61 64C61.550781 64 62 63.550781 62 63C62 62.449219 61.550781 62 61 62 Z M 65 62C64.449219 62 64 62.449219 64 63C64 63.550781 64.449219 64 65 64C65.550781 64 66 63.550781 66 63C66 62.449219 65.550781 62 65 62Z" fill="#5B5B5B" />
</svg>