<svg xmlns="http://www.w3.org/2000/svg" width="512" height="512" viewBox="0 0 512 512"><path fill="#BCBCBC" d="M418,123.1c-12.2,9.5-25,18.1-37.3,27.3c-12.7,9.5-25.4,19.2-38.1,28.8c-23.2,17.4-46.7,33.6-71.6,48.3c-44.5,26.4-91.6,51-128.8,87.6c1.1,0.8,1.9,2.1,1.9,3.9c0,2.4,2.3,5,3.2,7.2c1.2,2.9,2.3,5.9,3.3,8.9c1.9,6.2,4,12.3,5.8,18.6c4,13.7,7.5,27.5,11.9,41c6.2,18.8,11.4,38.1,19.1,56.4c1.8-12.3,3.6-24.6,6.3-36.6l6-27c0.5-2,1.5-4,2.1-6c0.2-0.7,0.4-1.4,0.6-2.1c-1.3-3-0.2-7.3,3.9-8.2c-0.6-1.6-0.5-3.5,0.7-5.2c5.3-7.7,11.2-14.9,17.5-21.8c9.9-10.9,20.5-21.1,30.6-31.8c10.6-11.3,20.2-23.6,30.6-35.2c10.5-11.7,21.3-23.1,32.4-34.3c10.9-11,21-22.7,31.3-34.2c10.2-11.4,21.2-21.9,32.1-32.7c10.9-10.8,21.1-22.3,30.8-34.1c9.6-11.7,18.9-23.6,28.5-35.3c2.1-2.5,4.2-5,6.4-7.5C437.2,106.9,427.9,115.4,418,123.1z"/><path fill="#BCBCBC" d="M213.3,379.2c-0.1,1.5-0.4,3-0.8,4.2c-2.5,7.7-4.2,15.4-5.9,23.4c-3.4,15.4-5.9,31.1-8.4,46.7c4-4.6,8.5-8.8,12.6-12.9c5.2-5.2,9.7-10.8,14.4-16.5c5.5-6.7,11.1-13.4,17-19.8c1.9-2,4.2-4.9,6.8-6.9C237.1,391.4,225.2,385.3,213.3,379.2z"/><path fill="#D6E5E5" d="M414.4 103.1c-16.4 7.3-33.1 14-49.6 21.1-29.3 12.6-59.6 23.6-88.3 37.6-13.9 6.8-27.5 14.1-41.5 20.8-14.3 6.9-29.2 12.6-43.9 18.5-30 12.1-59.8 24.9-90 36.7-11.2 4.4-22.2 9.3-33.7 12.7-4.9 1.4-9.8 2.8-14.5 4.6-1.3.5-3.4 1.3-5 2.2 1.1.6 2.2 1.3 3.2 2 3.1 1.9 6.3 3.2 9.4 5 8.5 5 16.9 10.4 25 16 15.1 10.4 29.2 22 45.9 29.8 14.6-14.7 30.8-27.7 47.9-39.5 45.4-31.4 95.5-55.2 140.1-87.9 25.7-18.9 50.7-38.6 76.6-57.2 11.7-8.4 22.8-17.2 33.8-26.6 2.2-1.8 4.3-3.7 6.5-5.5C429.1 96.5 421.8 99.9 414.4 103.1zM430.6 136.2c-9.4 12-19.1 23.8-29.5 35-10.4 11.2-22 21.3-32.5 32.4-10.5 11.2-20.4 22.9-30.8 34.2C316.4 261 294.1 283 274 307.2c-17.8 21.5-39.5 39.5-56.1 62 25.5 13.1 51 26.1 76.8 38.7 13.4 6.5 26.9 13 40.5 19.2 11.6 5.3 22.6 11.8 34.1 17.4-.7-13.6 1.6-27.2 3.6-40.6 2.3-15.7 4.2-31.2 8.4-46.6 4.1-15.2 9.2-30.1 13.9-45.2 4.7-15.2 8.2-30.7 12.1-46.1 8-31.3 18.3-61.7 28.7-92.2 5.8-17 11.2-34.1 16.5-51.2 2-6.5 4-13.1 5.9-19.6C448.3 113.3 439.4 125 430.6 136.2z"/><path d="M471.8,76c-1.1-1.8-3-3.1-5.2-3.1c-1.1,0-2.2,0.1-3.2,0.3c-0.6-0.2-1.3-0.3-2-0.3h-1.8c-1.3,0-2.3,0.4-3.1,1c-1.5,0.5-2.9,1.1-4.3,1.5c-3.5,1.2-7,2.5-10.4,3.8c-7.6,3-15,6.3-22.4,9.6c-14.5,6.5-29.2,12.5-43.8,18.8c-29.6,12.8-59.8,24.5-89.3,37.5c-28.5,12.6-55.4,28.1-84.4,39.8c-15,6.1-30.1,12.1-45,18.3c-15,6.2-29.8,12.9-45,18.7C96.3,227.9,81,235.2,65,239.9c-5.9,1.7-11.9,3.4-17.6,5.7c-4.2,1.7-9.4,4-11.3,8.4c-0.7,1.6-0.6,3.1,0,4.4c-0.8,1.9-0.5,4.3,1.3,6.2c0.3,0.3,0.7,0.7,1,1c1.5,1.5,3.1,1.8,4.6,1.4c1.2,0.7,2.3,1.6,3.4,2.2c3.1,1.9,6.3,3.2,9.4,5c8.8,5,17.3,10.6,25.5,16.4c15.1,10.6,29.4,22.1,46.3,29.8c0.9,0.4,1.8,0.6,2.6,0.5c0.8,0.5,1.7,0.8,2.6,0.9c0.2,0.7,0.5,1.3,0.9,1.8c1.2,3.7,3.6,7.1,4.9,10.7c2.3,6.3,4.2,12.9,6.2,19.3c4.3,14.2,7.9,28.7,12.4,42.8c8.3,25.7,15.4,52.2,28.2,76.1c1.2,2.2,3.6,2.8,5.7,2.2c2.6,1.9,6.4,2,7.8-1.9c3.5-9.6,12-16.9,19.1-24c4.9-4.9,9.3-10.1,13.7-15.5c4.8-5.9,9.6-11.7,14.6-17.3c2.3-2.6,4.6-5.2,7.1-7.7c0.5-0.5,1.9-1.9,2-1.9c0.6-0.5,1-0.8,1.1-0.9c1.4-0.5,2.5-1.5,3.2-2.8c10,5,20,10,30.1,14.9c12.8,6.3,25.7,12.4,38.7,18.3c12.9,5.9,25.2,13.2,38.1,19.3c1,0.7,2.1,1.2,3.4,1.4c2.6,0.3,4.8-1.2,5.8-3.1c2.6-0.3,5-2.3,4.7-5.7c-1.5-14.7,1.2-29.3,3.3-43.7c2.3-15.2,4.2-30,8.2-44.9c4.1-15.2,9.2-30.1,13.9-45.2c4.7-15.2,8.2-30.7,12.1-46.1c12.4-48.6,30.5-95.5,45.2-143.4c2.8-9.1,5.5-18.2,8-27.4c0.5-2,1.9-5.7,2.3-9.2c0.9-1.3,1.8-2.8,2.4-4.3C477.5,80.1,474.8,76.8,471.8,76z M131.6,310.1c-16.7-7.8-30.9-19.4-45.9-29.8c-8.1-5.6-16.5-11-25-16c-3.1-1.8-6.4-3.1-9.4-5c-1-0.6-2.1-1.3-3.2-2c1.6-0.8,3.7-1.7,5-2.2c4.7-1.8,9.7-3.2,14.5-4.6c11.5-3.4,22.5-8.3,33.7-12.7c30.1-11.8,59.9-24.6,90-36.7c14.7-6,29.6-11.7,43.9-18.5c14-6.7,27.6-14,41.5-20.8c28.7-14,58.9-25,88.3-37.6c16.5-7.1,33.2-13.8,49.6-21.1c7.3-3.3,14.7-6.6,22.1-9.8c-2.2,1.8-4.4,3.7-6.5,5.5c-11,9.4-22.1,18.1-33.8,26.6c-25.9,18.6-50.9,38.4-76.6,57.2c-44.6,32.7-94.7,56.5-140.1,87.9C162.4,282.3,146.2,295.4,131.6,310.1z M193.6,414.4c-2.7,12-4.5,24.4-6.3,36.6c-7.7-18.3-12.9-37.6-19.1-56.4c-4.5-13.5-8-27.3-11.9-41c-1.8-6.2-3.9-12.4-5.8-18.6c-1-3-2-6-3.3-8.9c-0.9-2.2-3.2-4.8-3.2-7.2c0-1.8-0.8-3.1-1.9-3.9c37.3-36.5,84.3-61.2,128.8-87.6c24.9-14.7,48.5-30.9,71.6-48.3c12.7-9.6,25.4-19.2,38.1-28.8c12.3-9.2,25.2-17.9,37.3-27.3c9.9-7.7,19.2-16.2,28.9-24c-2.2,2.4-4.3,4.9-6.4,7.5c-9.6,11.7-18.9,23.6-28.5,35.3c-9.7,11.9-19.9,23.3-30.8,34.1c-10.9,10.8-21.9,21.2-32.1,32.7c-10.3,11.5-20.4,23.2-31.3,34.2c-11.1,11.2-21.9,22.6-32.4,34.3c-10.4,11.6-19.9,23.9-30.6,35.2c-10.1,10.7-20.7,20.9-30.6,31.8c-6.3,6.9-12.2,14.1-17.5,21.8c-1.2,1.7-1.3,3.6-0.7,5.2c-4.1,0.9-5.2,5.3-3.9,8.2c-0.2,0.7-0.4,1.4-0.6,2.1c-0.6,2-1.6,4-2.1,6L193.6,414.4z M242.2,404.3c-5.9,6.3-11.5,13.1-17,19.8c-4.7,5.7-9.2,11.3-14.4,16.5c-4.1,4.1-8.6,8.3-12.6,12.9c2.5-15.6,5-31.3,8.4-46.7c1.8-7.9,3.5-15.7,5.9-23.4c0.4-1.2,0.7-2.7,0.8-4.2c11.9,6.1,23.8,12.2,35.7,18.2C246.3,399.4,244.1,402.3,242.2,404.3z M452.4,122.6c-5.2,17.1-10.6,34.3-16.5,51.2c-10.5,30.5-20.7,60.9-28.7,92.2c-3.9,15.4-7.5,31-12.1,46.1c-4.7,15-9.7,30-13.9,45.2c-4.2,15.4-6.1,30.9-8.4,46.6c-2,13.4-4.2,27-3.6,40.6c-11.5-5.6-22.5-12.1-34.1-17.4c-13.6-6.2-27.1-12.6-40.5-19.2c-25.8-12.6-51.3-25.6-76.8-38.7c16.5-22.5,38.2-40.6,56.1-62c20.1-24.2,42.5-46.2,63.8-69.3c10.4-11.3,20.3-23,30.8-34.2c10.5-11.2,22.1-21.2,32.5-32.4c10.4-11.2,20.1-23,29.5-35c8.8-11.2,17.7-22.9,27.7-33.2C456.4,109.5,454.4,116.1,452.4,122.6z"/></svg>