<svg xmlns="http://www.w3.org/2000/svg" viewBox="0 0 1788.94 626.42"><defs><style>.cls-1{fill:#c00;}</style></defs><g id="Layer_2" data-name="Layer 2"><g id="Layer_1-2" data-name="Layer 1"><g id="Layer_2-2" data-name="Layer 2"><g id="Layer_1-2-2" data-name="Layer 1-2"><path class="cls-1" d="M389.49,626.13H43.32c3.44-14,6.66-27.68,10.21-41.3,19.19-73.69,45.19-144.8,81-212.15,39.61-74.57,89.38-141.22,154.16-196C346.14,128.14,410.51,92,482.88,71c42.43-12.34,85.88-14.58,129.71-10.19C684.06,67.93,750.22,92,813.42,124.93c70.1,36.57,133.92,82.15,192.22,135.5,1.1,1,2.18,2.06,3.24,3.12a11.16,11.16,0,0,1,1,1.37c-.7.7-1.43,1.37-2.2,2-3.86,2.87-7.75,5.69-11.25,8.25-15.21-10.66-29.75-21.52-44.94-31.37-52.5-34-108.58-60-169.89-73.79-74.79-16.78-147.7-12.46-217.22,21.87q-135.74,67-169.68,215c-11.56,50.43-14.31,101.51-11.23,153,1.28,21.42,4,42.76,6,64.14A18.29,18.29,0,0,1,389.49,626.13Z"/><path class="cls-1" d="M873.44,626.41H841.91c-29.66,0-59.32.08-89-.14a12.09,12.09,0,0,1-7.68-3.22c-21.81-21.79-43.4-43.79-65.07-65.72-1.23-1.25-2.56-2.39-4.68-4.37V626H591.94V313.24h6c46,.32,92,.54,138,1,23.39.24,46.12,4.13,67.18,14.88,31,15.83,47.09,41.71,49.69,76.08,1.94,25.49-1.82,50.28-12.26,73.65-11.92,26.67-31.4,44.69-61.1,49.92a1.68,1.68,0,0,0-.79.36ZM679.9,457.54h69.35V401H679.9Z"/><path class="cls-1" d="M1134.54,626.21h-83.77V573.63h-81v51.94H883.51v-6.73c0-75.66.69-151.34-.29-227-.51-39.68,28.68-67.71,59.35-72.78,46.27-7.65,92.61-7.64,138.54,2.37,22.4,4.88,40.25,17,48.76,39.4,2.67,7,4.61,14.85,4.64,22.32.34,80.16.24,160.32.25,240.48C1134.76,624.34,1134.64,625,1134.54,626.21ZM969.75,483.9h77.6V396.78h-77.6Z"/><path class="cls-1" d="M1542,626.41V546.73c1.81-.08,3.56-.25,5.31-.24,46.32.29,92.64.77,139,.66A33.15,33.15,0,0,0,1703,542c10-6.34,8.68-18.88-2.43-22.93-7.08-2.58-14.82-3.75-22.38-4.51-14.23-1.44-28.63-1.48-42.81-3.28-16.52-2.1-32.68-6.13-47.93-13.23-33.52-15.59-50.51-41.93-51.72-78.78-.87-26.6,3.41-51.84,19.37-73.92,16.89-23.35,40.48-35.26,68.79-35.75,48.48-.85,97-.28,145.47-.29.64,0,1.28.14,2.33.26v86.33H1633.13c0,9.23-.07,17.85.11,26.46,0,.84,1.38,2,2.36,2.37,1.19.42,2.63.14,4,.14h73.48c44.07.07,74.83,30.34,75.76,74.54.6,28.76-1.45,57.3-9,85.15-7.24,26.79-21.36,38.24-48.92,40.7-7.79.69-15.63,1.07-23.45,1.08q-80.23.14-160.47,0Z"/><path class="cls-1" d="M1312.75,314.51h86.56V546.2h122.15v79.92H1312.75Z"/><path class="cls-1" d="M1266.64,626.26H1177V314.56h89.62Z"/><path class="cls-1" d="M62.4,481.25c-20.57-6.4-40.58-12.56-60.51-19-1-.31-2.18-2.89-1.83-3.89,8.07-22.87,16.33-45.67,24.78-69.07l61.13,25Z"/><path class="cls-1" d="M171.51,167.92,229.76,205c-15.24,18.63-30.12,36.88-45.25,55.32L125.8,218.48Z"/><path class="cls-1" d="M306.43,60.34,359.89,31.9l39,45.77-53.95,30.84Z"/><path class="cls-1" d="M580.93,47.52H517.38c-2.39,0-4-.27-4.71-3.07-3.53-14.51-7.22-29-11-44,1.72-.14,3.12-.36,4.51-.37,21.47,0,42.94.06,64.41-.08,3.53,0,4.84.85,5.23,4.59C577.27,18.7,579.13,32.7,580.93,47.52Z"/><path class="cls-1" d="M422.29,385c13.88,10,27.7,19.83,41.39,29.84a5.28,5.28,0,0,1,1.86,4.09c-1.63,14.37-3.49,28.71-5.37,43.61a33.19,33.19,0,0,1-3.84-1.27q-24.48-11.88-48.92-23.81c-2-1-3.88-1.61-2.77-4.71,5.58-15.49,11-31,16.45-46.57C421.19,385.87,421.55,385.69,422.29,385Z"/><path class="cls-1" d="M510.81,342.34l-45.76-51.53c10.84-11.63,21.54-23.13,32.57-35,1,1.33,1.87,2.26,2.54,3.3,9.45,14.68,18.92,29.35,28.23,44.11.91,1.45,1.71,4,1.06,5.23C523.57,319.61,517.36,330.56,510.81,342.34Z"/><path class="cls-1" d="M453.86,623.56c-17-3.8-33.21-7.36-49.36-11.15a4.35,4.35,0,0,1-2.51-3.28c.48-17.45,1.17-34.89,1.84-53.07a44,44,0,0,1,4.19,1.59c14.13,7,28.26,14,42.3,21.24,1.49.76,3.36,2.66,3.39,4.06C454,596.23,453.86,609.51,453.86,623.56Z"/><path class="cls-1" d="M592.2,239.8l-19.32-36.26,42.93-15.94c3.39,8.33,6.71,16.24,9.74,24.26.35.91-.58,2.88-1.5,3.59C613.69,223.51,603.21,231.42,592.2,239.8Z"/><path class="cls-1" d="M720.55,40.91c20.25,13,39.51,25.36,59.3,38.08-3.76,5-7.25,9.75-11,14.31-.57.68-2.75.76-3.73.25q-21.23-11-42.26-22.37a4.77,4.77,0,0,1-2.18-3.35C720.47,59.22,720.55,50.61,720.55,40.91Z"/><path class="cls-1" d="M767.32,177.11c-1.2,9-2.27,17.06-3.42,25.68l-45.37-3.32V171Z"/></g></g></g></g></svg>