<svg id="Component_31_1" data-name="Component 31 – 1" xmlns="http://www.w3.org/2000/svg" width="612.302" height="512.251" viewBox="0 0 612.302 512.251">
  <g id="Path_206" data-name="Path 206" transform="translate(110.583 -47.231)" fill="#b32626">
    <path d="M 200.2373352050781 388.6650695800781 C 181.1364135742188 388.6650695800781 160.0670776367188 387.6309204101562 139.3071594238281 385.67431640625 C 114.5579986572266 383.3417358398438 90.74591827392578 379.7809143066406 68.53233337402344 375.0906677246094 C 42.74391555786133 369.6456604003906 19.48124885559082 362.7364196777344 -0.6094186305999756 354.5549011230469 C -11.65150165557861 350.0582275390625 -21.86608505249023 345.1159973144531 -30.96941947937012 339.8654174804688 C -40.60508346557617 334.3076477050781 -49.23258590698242 328.2676696777344 -56.61216735839844 321.9129943847656 C -63.88725280761719 315.6483154296875 -70.24883270263672 308.8940734863281 -75.52033233642578 301.8378295898438 C -80.33866882324219 295.3881530761719 -84.36083221435547 288.5330810546875 -87.47508239746094 281.4629211425781 C -92.81891632080078 269.3309020996094 -95.64558410644531 256.2726440429688 -95.87667083740234 242.6509094238281 C -96.27347564697266 219.2582397460938 -88.93867492675781 200.7216033935547 -86.290283203125 194.8236083984375 C -55.84628295898438 163.1099548339844 -29.33282279968262 138.3254547119141 -5.250585079193115 119.068244934082 C 6.944498062133789 109.3164901733398 18.42324829101562 101.0266571044922 29.84141540527344 93.72515869140625 C 41.05716323852539 86.55316162109375 51.85124969482422 80.56765747070312 62.84049987792969 75.42682647705078 C 73.49849700927734 70.44091033935547 84.03182983398438 66.39498901367188 95.04241180419922 63.05807495117188 C 105.5571670532227 59.8713264465332 116.268913269043 57.40557479858398 127.7898330688477 55.5199089050293 C 148.0230865478516 52.20832443237305 170.3666687011719 50.73149108886719 200.2373352050781 50.73149108886719 C 217.5892486572266 50.73149108886719 236.0003356933594 52.62290954589844 254.9589996337891 56.35315704345703 C 270.1540832519531 59.3429069519043 285.729248046875 63.51316070556641 301.2517395019531 68.74799346923828 C 327.0048522949219 77.43309783935547 344.03662109375 86.19068145751953 345.033447265625 86.70775604248047 C 346.4170837402344 87.49266052246094 373.645751953125 102.9692611694336 403.3533325195312 121.9477386474609 C 421.1399841308594 133.3106536865234 436.3174133300781 143.6839904785156 448.4639282226562 152.7795715332031 C 463.31640625 163.9013824462891 473.5724182128906 173.0589904785156 478.9540710449219 180.0037231445312 C 482.8540954589844 187.3078918457031 488.4231567382812 198.3089599609375 492.3631591796875 210.3589935302734 C 494.27099609375 216.1938323974609 495.6891784667969 221.9399108886719 496.5782470703125 227.4376525878906 C 497.5636596679688 233.5307464599609 497.9380798339844 239.5514068603516 497.6910095214844 245.3323211669922 C 497.4219055175781 251.6289978027344 496.4069213867188 257.8567504882812 494.674072265625 263.8426513671875 C 492.8016662597656 270.3105773925781 490.0310668945312 276.7059020996094 486.4391784667969 282.8509826660156 C 482.5774841308594 289.4573974609375 477.6492614746094 295.9769897460938 471.7910766601562 302.2284240722656 C 465.5333251953125 308.90625 458.0330810546875 315.4725646972656 449.4985961914062 321.7449035644531 C 440.9031677246094 328.0620727539062 431.4073181152344 334.0606689453125 421.27490234375 339.5740661621094 C 411.6648254394531 344.8032531738281 401.2522583007812 349.7212524414062 390.3263244628906 354.19140625 C 370.2455749511719 362.4073181152344 347.9349975585938 369.33349609375 324.0143432617188 374.7774047851562 C 302.9790954589844 379.5646667480469 280.8104248046875 383.1910705566406 258.1241760253906 385.5558166503906 C 247.9867553710938 386.6124877929688 237.7525024414062 387.4125061035156 227.7055053710938 387.9334106445312 C 218.3433380126953 388.4189147949219 209.1016693115234 388.6650695800781 200.2373352050781 388.6650695800781 Z" stroke="none"/>
    <path d="M 200.2373352050781 54.23141479492188 C 100.6586303710938 54.23141479492188 40.10940551757812 68.3231201171875 -83.34295654296875 196.8074798583984 C -89.54248046875 210.8666076660156 -110.9537353515625 270.4999084472656 -54.32839965820312 319.2608032226562 C 2.16143798828125 367.9049682617188 118.1100769042969 385.1650695800781 200.2373352050781 385.1650695800781 C 276.1642456054688 385.1650695800781 380.9729614257812 367.7637023925781 447.42578125 318.9246215820312 C 511.5926513671875 271.7658081054688 498.0074462890625 223.2354888916016 476.0073852539062 181.9164428710938 C 452.2044067382812 151.56689453125 344.3497009277344 90.34234619140625 343.4551696777344 89.83197021484375 C 342.7750549316406 89.47598266601562 274.5888061523438 54.23141479492188 200.2373352050781 54.23141479492188 M 200.2373352050781 47.23141479492188 C 277.3025207519531 47.23141479492188 346.7040710449219 83.631591796875 346.7040710449219 83.631591796875 C 346.7040710449219 83.631591796875 457.6574401855469 146.4095153808594 481.9042358398438 178.0984191894531 C 501.837890625 215.3649749755859 523.5043334960938 271.6985168457031 451.5712585449219 324.5651550292969 C 379.6381530761719 377.431884765625 269.2017211914062 392.1650695800781 200.2373352050781 392.1650695800781 C 130.2070617675781 392.1650695800781 3.503875732421875 378.2986145019531 -58.89602661132812 324.5651550292969 C -121.2959594726562 270.831787109375 -94.33203125 203.9299621582031 -89.2294921875 192.8315124511719 C 32.970703125 65.43161010742188 93.64633178710938 47.23141479492188 200.2373352050781 47.23141479492188 Z" stroke="none" fill="#cd0303"/>
  </g>
  <g id="Group_260" data-name="Group 260" transform="translate(-6630.48 -3445.838)">
    <g id="Path_201" data-name="Path 201" transform="matrix(-0.809, -0.588, 0.588, -0.809, 6738.409, 3767.958)" fill="#981919">
      <path d="M 131.4945526123047 211.4885559082031 L 8.212117195129395 203.5157165527344 C 12.81891822814941 190.4653472900391 27.07818984985352 150.1087341308594 41.55532073974609 109.5214004516602 C 51.84017181396484 80.68727874755859 60.2203483581543 57.38198852539062 66.46308135986328 40.25286865234375 C 70.16646575927734 30.09133911132812 73.14755249023438 22.02263450622559 75.32352447509766 16.27089881896973 C 75.65257263183594 15.40112209320068 75.95620727539062 14.60296821594238 76.23645782470703 13.87029552459717 C 76.45961761474609 14.62051677703857 76.70116424560547 15.43675804138184 76.962646484375 16.32489776611328 C 78.71943664550781 22.29204559326172 81.13402557373047 30.68431091308594 84.13935089111328 41.26857376098633 C 89.204345703125 59.10683822631836 96.01682281494141 83.41210174560547 104.3874359130859 113.5092239379883 C 116.117317199707 155.6847381591797 127.6870346069336 197.6616973876953 131.4945526123047 211.4885559082031 Z" stroke="none"/>
      <path d="M 75.81938171386719 24.90353393554688 C 62.79730224609375 60.03558349609375 34.32977294921875 140.03173828125 13.05001831054688 200.3212738037109 L 126.816276550293 207.6786956787109 C 109.4667129516602 144.6683654785156 86.34669494628906 61.36245727539062 75.81938171386719 24.90353393554688 M 76.65122222900391 3.807723999023438 C 76.65399169921875 3.807723999023438 76.65638732910156 3.808181762695312 76.65880584716797 3.809188842773438 C 78.17860412597656 4.441925048828125 136.1734313964844 215.2984619140625 136.1734313964844 215.2984619140625 L 3.373443603515625 206.7100830078125 C 3.373443603515625 206.7100830078125 74.91162872314453 3.807723999023438 76.65122222900391 3.807723999023438 Z" stroke="none" fill="#d52020"/>
    </g>
    <path id="Path_202" data-name="Path 202" d="M6939.492,3790.772l91.282-190.257-179.594-5.373Z" fill="#981919" stroke="#d52020" stroke-width="7"/>
    <path id="Path_203" data-name="Path 203" d="M7165.713,3736.466c1.479-1.365-38.526-205.18-38.526-205.18l-98.461,68.205S7164.234,3737.831,7165.713,3736.466Z" fill="#c22521" stroke="#d52020" stroke-width="7"/>
    <path id="Path_204" data-name="Path 204" d="M7223.149,3583.207l-107.757-82.691,11.107,44.369Z" fill="none" stroke="#d52020" stroke-width="7"/>
    <path id="Path_205" data-name="Path 205" d="M6653.854,3595.388l105.641-91.282-81.026,213.846" fill="none" stroke="#d52020" stroke-width="7"/>
  </g>
  <path id="Path_208" data-name="Path 208" d="M6680.134,3716.81c1.65.926,267.08,236.932,267.08,236.932l-143.867-177.667S6678.484,3715.884,6680.134,3716.81Z" transform="translate(-6630.48 -3445.838)" fill="#981919" stroke="#d52020" stroke-width="7"/>
  <path id="Path_209" data-name="Path 209" d="M6947.214,3954.608c-8.667,1.733-147.334-178.534-147.334-178.534s121.333,18.2,136.934,16.467C6938.547,3791.674,6955.88,3952.875,6947.214,3954.608Z" transform="translate(-6630.48 -3445.838)" fill="#d52020" stroke="#cd0303" stroke-width="7"/>
  <path id="Path_210" data-name="Path 210" d="M6938.5,3790.772c-.5-.272,7.024,162.922,9,162.728s113-176,113-176S6969.5,3794.043,6938.5,3790.772Z" transform="translate(-6630.48 -3445.838)" fill="#981919" stroke="#d52020" stroke-width="7"/>
  <path id="Path_211" data-name="Path 211" d="M7159.647,3739.74S6949.472,3953.563,6949,3954.5s111-177,111-177S7135.647,3753.24,7159.647,3739.74Z" transform="translate(-6630.48 -3445.838)" fill="#ab3636" stroke="#d52020" stroke-width="7"/>
  <path id="Path_212" data-name="Path 212" d="M6891.149,3876.652l-89.258,190.012s177.84-6.762,224.5-52.067C7025.037,4013.244,6891.149,3876.652,6891.149,3876.652Z" transform="translate(-6492.48 -3723.838)" fill="#a11919" stroke="#d52020" stroke-width="7"/>
  <g id="Path_207" data-name="Path 207" transform="translate(163.52 -77.838)" fill="#981919">
    <path d="M 167.5102996826172 235.2858428955078 C 158.3199462890625 235.2858428955078 149.6186981201172 235.1227416992188 141.2039947509766 234.9649963378906 C 134.0284423828125 234.8304443359375 127.250846862793 234.7033996582031 121.1396484375 234.7033996582031 C 112.3691940307617 234.7033996582031 103.4774475097656 234.3442993164062 94.71139526367188 233.6361389160156 C 85.43650054931641 232.8868408203125 76.29999542236328 231.7453460693359 67.55569458007812 230.2433013916016 C 48.2403450012207 226.9253997802734 31.06874656677246 221.9309997558594 16.51799774169922 215.3986968994141 C 0.2638968825340271 208.1017913818359 -12.40680313110352 198.994140625 -21.14215278625488 188.3287963867188 C -25.83230400085449 182.6023406982422 -29.43440246582031 176.3461456298828 -31.84830284118652 169.7339935302734 C -34.40000152587891 162.7443389892578 -35.69385147094727 155.1639404296875 -35.69385147094727 147.2033386230469 C -35.69385147094727 144.2475433349609 -35.02675247192383 141.4798889160156 -33.65450286865234 138.7422943115234 C -32.39230346679688 136.2243499755859 -30.56015396118164 133.7809906005859 -28.05325317382812 131.2725524902344 C -23.1939525604248 126.4103927612305 -16.71815299987793 122.2472457885742 -10.45560359954834 118.2211456298828 C -6.619052886962891 115.7547454833984 -2.995303153991699 113.4250946044922 0.1985468715429306 110.9841995239258 C 4.305496692657471 107.8452453613281 8.875896453857422 104.9269485473633 13.78289699554443 102.3103942871094 C 18.48654747009277 99.80219268798828 23.63759613037109 97.49769592285156 29.09294700622559 95.46079254150391 C 34.29049682617188 93.52014923095703 39.91939544677734 91.76459503173828 45.82339859008789 90.24294281005859 C 51.40329742431641 88.80479431152344 57.40134811401367 87.53129577636719 63.65084838867188 86.45779418945312 C 74.99599456787109 84.50894927978516 87.30364990234375 83.16294860839844 101.2771453857422 82.34284973144531 C 112.5875930786133 81.67904663085938 124.6822967529297 81.36989593505859 139.33984375 81.36989593505859 C 148.2444000244141 81.36989593505859 157.6898956298828 81.70504760742188 167.4138946533203 82.36599731445312 C 177.9217987060547 83.08024597167969 188.5034942626953 84.16069793701172 198.8650970458984 85.57744598388672 C 210.146240234375 87.11989593505859 221.1085968017578 89.05534362792969 231.4476470947266 91.32999420166016 C 242.6924438476562 93.80389404296875 253.2793426513672 96.69839477539062 262.9143371582031 99.93299865722656 C 284.6009521484375 107.2134475708008 301.6054077148438 116.21484375 313.4553527832031 126.6870422363281 C 319.8988037109375 132.3813018798828 324.8470458984375 138.5661926269531 328.1626892089844 145.0699005126953 C 329.8861389160156 148.4505462646484 331.2035827636719 151.9882507324219 332.0783996582031 155.5847015380859 C 332.9818420410156 159.2988433837891 333.43994140625 163.1855010986328 333.43994140625 167.1367034912109 C 333.43994140625 183.5518035888672 324.1661376953125 196.7547454833984 305.0885620117188 207.5000457763672 C 296.7110595703125 212.2185974121094 286.6091003417969 216.4016418457031 274.2055053710938 220.2882385253906 C 263.8129577636719 223.5446472167969 251.7821502685547 226.5830993652344 237.4255981445312 229.5771484375 C 226.9873962402344 231.7540893554688 215.5933532714844 233.2622985839844 202.5923919677734 234.1880493164062 C 192.2183990478516 234.9267425537109 180.7429504394531 235.2858428955078 167.5102996826172 235.2858428955078 Z" stroke="none"/>
    <path d="M 139.33984375 84.86985778808594 C 90.28109741210938 84.86985778808594 35.63787841796875 88.30281066894531 2.32379150390625 113.7651214599609 C -0.89599609375 116.2258148193359 -4.660308837890625 118.6563873291016 -8.562744140625 121.1651763916016 C -20.1805419921875 128.6339721679688 -32.19384765625 136.3570709228516 -32.19384765625 147.2033843994141 C -32.19384765625 209.2040710449219 50.40594482421875 231.2033996582031 121.1396331787109 231.2033996582031 C 127.2578887939453 231.2033996582031 134.0287780761719 231.3298034667969 141.2694702148438 231.4655456542969 C 149.4945220947266 231.6197509765625 158.3327789306641 231.7858123779297 167.5101013183594 231.7858123779297 C 185.6179962158203 231.7858123779297 212.4925231933594 231.20166015625 236.7110443115234 226.1508178710938 C 301.1871032714844 212.704345703125 329.93994140625 194.5037536621094 329.93994140625 167.1367034912109 C 329.93994140625 107.2044372558594 213.0307922363281 84.86985778808594 139.33984375 84.86985778808594 M 139.33984375 77.86985778808594 C 208.3754119873047 77.86985778808594 336.93994140625 98.10111999511719 336.93994140625 167.1367034912109 C 336.93994140625 205.7966613769531 289.5165100097656 222.2888641357422 238.1401519775391 233.0033874511719 C 198.1037139892578 241.3531188964844 151.5152893066406 238.2033843994141 121.1396331787109 238.2033996582031 C 52.10404968261719 238.2033996582031 -39.19384765625 216.2389678955078 -39.19384765625 147.2033843994141 C -39.19384765625 128.2185974121094 -15.47549438476562 118.5579681396484 -1.9267578125 108.2033843994141 C 33.06204223632812 81.46112060546875 89.28904724121094 77.86985778808594 139.33984375 77.86985778808594 Z" stroke="none" fill="#cd0303"/>
  </g>
  <path id="Path_213" data-name="Path 213" d="M6992.94,3824.074l35.538,189.228s113.329-55.1,57.184-152.838C7086.7,3859.425,6992.94,3824.074,6992.94,3824.074Z" transform="translate(-6492.48 -3723.838)" fill="#981919" stroke="#d52020" stroke-width="7"/>
</svg>
